<svg width="20" height="20" viewBox="0 0 20 20" version="1.1" xmlns="http://www.w3.org/2000/svg" xmlns:xlink="http://www.w3.org/1999/xlink">
<title>ic_call</title>
<desc>Created using Figma</desc>
<g id="Canvas" transform="translate(-551 528)">
<g id="ic_call">
<mask id="mask0_outline" mask-type="alpha">
<g id="Mask">
<use xlink:href="#path0_fill" transform="translate(553.5 -525.5)" fill="#FFFFFF"/>
</g>
</mask>
<g id="&#240;&#159;&#142;&#168; Color" mask="url(#mask0_outline)">
<g id="Black">
<use xlink:href="#path1_fill" transform="translate(540.167 -538.833)" fill="#404040"/>
</g>
<mask id="mask1_outline" mask-type="alpha">
<g id="Black">
<use xlink:href="#path1_fill" transform="translate(540.167 -538.833)" fill="#FFFFFF"/>
</g>
</mask>
</g>
</g>
</g>
<defs>
<path id="path0_fill" fill-rule="evenodd" d="M 3.01667 6.49167C 4.21667 8.85 6.15 10.775 8.50833 11.9833L 10.3417 10.15C 10.5667 9.925 10.9 9.85 11.1917 9.95C 12.125 10.2583 13.1333 10.425 14.1667 10.425C 14.625 10.425 15 10.8 15 11.2583L 15 14.1667C 15 14.625 14.625 15 14.1667 15C 6.34167 15 0 8.65833 0 0.833333C 0 0.375 0.375 0 0.833333 0L 3.75 0C 4.20833 0 4.58333 0.375 4.58333 0.833333C 4.58333 1.875 4.75 2.875 5.05833 3.80833C 5.15 4.1 5.08333 4.425 4.85 4.65833L 3.01667 6.49167Z"/>
<path id="path1_fill" fill-rule="evenodd" d="M 0 0L 41.6667 0L 41.6667 41.6667L 0 41.6667L 0 0Z"/>
</defs>
</svg>
