<svg width="20" height="20" viewBox="0 0 20 20" version="1.1" xmlns="http://www.w3.org/2000/svg" xmlns:xlink="http://www.w3.org/1999/xlink">
<title>ic_email</title>
<desc>Created using Figma</desc>
<g id="Canvas" transform="translate(-707 528)">
<g id="ic_email">
<mask id="mask0_outline" mask-type="alpha">
<g id="Mask">
<use xlink:href="#path0_fill" transform="translate(708.667 -524.667)" fill="#FFFFFF"/>
</g>
</mask>
<g id="&#240;&#159;&#142;&#168; Color" mask="url(#mask0_outline)">
<g id="Black">
<use xlink:href="#path1_fill" transform="translate(696.167 -538.833)" fill="#404040"/>
</g>
<mask id="mask1_outline" mask-type="alpha">
<g id="Black">
<use xlink:href="#path1_fill" transform="translate(696.167 -538.833)" fill="#FFFFFF"/>
</g>
</mask>
</g>
</g>
</g>
<defs>
<path id="path0_fill" fill-rule="evenodd" d="M 15 0L 1.66667 0C 0.75 0 0.00833333 0.75 0.00833333 1.66667L 0 11.6667C 0 12.5833 0.75 13.3333 1.66667 13.3333L 15 13.3333C 15.9167 13.3333 16.6667 12.5833 16.6667 11.6667L 16.6667 1.66667C 16.6667 0.75 15.9167 0 15 0ZM 15 3.33335L 8.33335 7.50002L 1.66669 3.33335L 1.66669 1.66669L 8.33335 5.83335L 15 1.66669L 15 3.33335Z"/>
<path id="path1_fill" fill-rule="evenodd" d="M 0 0L 41.6667 0L 41.6667 41.6667L 0 41.6667L 0 0Z"/>
</defs>
</svg>
