<svg width="20" height="20" viewBox="0 0 20 20" version="1.1" xmlns="http://www.w3.org/2000/svg" xmlns:xlink="http://www.w3.org/1999/xlink">
<title>ic_search</title>
<desc>Created using Figma</desc>
<g id="Canvas" transform="translate(-788 528)">
<g id="ic_search">
<mask id="mask0_outline" mask-type="alpha">
<g id="Mask">
<use xlink:href="#path0_fill" transform="translate(790.5 -525.5)" fill="#FFFFFF"/>
</g>
</mask>
<g id="&#240;&#159;&#142;&#168; Color" mask="url(#mask0_outline)">
<g id="Black">
<use xlink:href="#path1_fill" transform="translate(777.167 -538.833)" fill="#404040"/>
</g>
<mask id="mask1_outline" mask-type="alpha">
<g id="Black">
<use xlink:href="#path1_fill" transform="translate(777.167 -538.833)" fill="#FFFFFF"/>
</g>
</mask>
</g>
</g>
</g>
<defs>
<path id="path0_fill" fill-rule="evenodd" d="M 10.4167 9.16667L 9.75833 9.16667L 9.525 8.94167C 10.3417 7.99167 10.8333 6.75833 10.8333 5.41667C 10.8333 2.425 8.40833 0 5.41667 0C 2.425 0 0 2.425 0 5.41667C 0 8.40833 2.425 10.8333 5.41667 10.8333C 6.75833 10.8333 7.99167 10.3417 8.94167 9.525L 9.16667 9.75833L 9.16667 10.4167L 13.3333 14.575L 14.575 13.3333L 10.4167 9.16667ZM 5.41669 9.16669C 3.34169 9.16669 1.66669 7.49169 1.66669 5.41669C 1.66669 3.34169 3.34169 1.66669 5.41669 1.66669C 7.49169 1.66669 9.16669 3.34169 9.16669 5.41669C 9.16669 7.49169 7.49169 9.16669 5.41669 9.16669Z"/>
<path id="path1_fill" fill-rule="evenodd" d="M 0 0L 41.6667 0L 41.6667 41.6667L 0 41.6667L 0 0Z"/>
</defs>
</svg>
