<svg width="24" height="24" viewBox="0 0 24 24" version="1.1" xmlns="http://www.w3.org/2000/svg" xmlns:xlink="http://www.w3.org/1999/xlink">
<title>Instagram</title>
<desc>Created using Figma</desc>
<g id="Canvas" transform="translate(-710 -1363)">
<g id="Instagram">
<g id="Combined Shape">
<use xlink:href="#path0_fill" transform="translate(710 1363)" fill="#999999"/>
</g>
<g id="Combined Shape">
<use xlink:href="#path1_fill" transform="translate(716.754 1369.75)" fill="#999999"/>
</g>
<g id="Shape">
<use xlink:href="#path2_fill" transform="translate(719.867 1372.87)" fill="#999999"/>
</g>
</g>
</g>
<defs>
<path id="path0_fill" fill-rule="evenodd" d="M 12 0C 5.37256 0 0 5.37256 0 12C 0 18.6274 5.37256 24 12 24C 18.6274 24 24 18.6274 24 12C 24 5.37256 18.6274 0 12 0ZM 9.36157 5.63879C 10.044 5.60767 10.2621 5.6001 11.9985 5.6001C 13.7372 5.6001 13.9545 5.60767 14.6372 5.63879C 15.3185 5.66992 15.7839 5.77783 16.1919 5.93616C 16.6132 6.09949 16.9692 6.31812 17.3253 6.67407C 17.6812 7.02979 17.8999 7.38696 18.0639 7.80786C 18.2213 8.21484 18.3292 8.67981 18.3613 9.36121C 18.3919 10.0438 18.3999 10.262 18.3999 12.0001C 18.3999 13.7383 18.3919 13.9559 18.3613 14.6385C 18.3292 15.3197 18.2213 15.7849 18.0639 16.1919C 17.8999 16.6128 17.6812 16.9698 17.3253 17.3256C 16.9696 17.6815 16.6131 17.9008 16.1923 18.0642C 15.7851 18.2225 15.3195 18.3303 14.6381 18.3616C 13.9554 18.3926 13.738 18.4003 11.9997 18.4003C 10.2617 18.4003 10.0437 18.3926 9.36102 18.3616C 8.67981 18.3303 8.2146 18.2225 7.80743 18.0642C 7.38672 17.9008 7.02966 17.6815 6.67407 17.3256C 6.31818 16.9698 6.09955 16.6128 5.93591 16.1918C 5.77777 15.7849 5.66992 15.3198 5.63861 14.6384C 5.60767 13.9558 5.59991 13.7383 5.59991 12.0001C 5.59991 10.262 5.60791 10.0437 5.63843 9.36108C 5.66913 8.68005 5.7771 8.21484 5.93579 7.80774C 6.09979 7.38696 6.31848 7.02979 6.67444 6.67407C 7.03021 6.31824 7.38727 6.09961 7.80823 5.93616C 8.21515 5.77783 8.68024 5.66992 9.36157 5.63879Z"/>
<path id="path1_fill" fill-rule="evenodd" d="M 4.67261 0.00158691L 5.03345 0.00158691L 5.2467 0.00158691C 6.95557 0.00158691 7.15808 0.00769043 7.83289 0.0384521C 8.45691 0.0668945 8.79553 0.171143 9.02118 0.258789C 9.31982 0.374756 9.53278 0.513428 9.75665 0.737427C 9.98065 0.961426 10.1193 1.1748 10.2356 1.47351C 10.3232 1.69885 10.4276 2.03748 10.456 2.6615C 10.4866 3.33618 10.4933 3.53882 10.4933 5.24683C 10.4933 6.95483 10.4866 7.15759 10.456 7.83228C 10.4274 8.45618 10.3232 8.79492 10.2356 9.02026C 10.1196 9.31885 9.98065 9.53162 9.75665 9.75549C 9.53265 9.97949 9.31995 10.1182 9.02118 10.2341C 8.79584 10.3221 8.45691 10.4261 7.83289 10.4546C 7.1582 10.4854 6.95557 10.4919 5.2467 10.4919C 3.53778 10.4919 3.33521 10.4854 2.66058 10.4546C 2.03656 10.4258 1.69788 10.3215 1.47217 10.234C 1.17346 10.1179 0.960144 9.97925 0.736145 9.75525C 0.512146 9.53125 0.373474 9.31848 0.257202 9.01965C 0.169617 8.79431 0.0651855 8.45569 0.0368042 7.83167C 0.00610352 7.15698 0 6.95435 0 5.24524C 0 3.53613 0.00610352 3.33459 0.0368042 2.65991C 0.0653076 2.03589 0.169617 1.69727 0.257202 1.47156C 0.37323 1.17297 0.512146 0.959595 0.736145 0.735596C 0.960144 0.511597 1.17346 0.372925 1.47217 0.256714C 1.69775 0.168701 2.03656 0.0646973 2.66058 0.0360107C 3.25098 0.00927734 3.4798 0.00134277 4.67261 0L 4.67261 0.00158691ZM 8.66296 1.06519C 8.23895 1.06519 7.89496 1.40881 7.89496 1.83301C 7.89496 2.25696 8.23895 2.60095 8.66296 2.60095C 9.08698 2.60095 9.43097 2.25696 9.43097 1.83301C 9.43097 1.40894 9.08698 1.06494 8.66296 1.06519ZM 1.96014 5.24817C 1.96014 3.43298 3.43176 1.96143 5.24683 1.96143C 7.06177 1.96143 8.53302 3.43298 8.53302 5.24817C 8.53302 7.06323 7.06195 8.53418 5.24683 8.53418C 3.43176 8.53418 1.96014 7.06323 1.96014 5.24817Z"/>
<path id="path2_fill" fill-rule="evenodd" d="M 2.13336 0C 3.3115 0 4.26671 0.955077 4.26671 2.13336C 4.26671 3.3115 3.3115 4.26671 2.13336 4.26671C 0.955077 4.26671 0 3.3115 0 2.13336C 0 0.955077 0.955077 9.474e-16 2.13336 9.474e-16L 2.13336 0Z"/>
</defs>
</svg>
