<svg width="146" height="20" viewBox="0 0 146 20" version="1.1" xmlns="http://www.w3.org/2000/svg" xmlns:xlink="http://www.w3.org/1999/xlink">
<title>Group</title>
<desc>Created using Figma</desc>
<g id="Canvas" transform="translate(-73 528)">
<g id="Group">
<g id="Vector">
<use xlink:href="#path0_fill" transform="translate(73 -528)" fill="#D8B06D"/>
</g>
</g>
</g>
<defs>
<path id="path0_fill" d="M 4.27388 18.7268C 5.64574 19.5225 7.22865 19.8939 8.96986 19.8939C 10.289 19.8939 11.5025 19.6286 12.505 19.1512C 13.5076 18.6737 14.4573 17.878 15.4071 16.817L 15.4071 15.2255C 14.4573 16.4456 13.5603 17.3475 12.6633 17.8249C 11.8191 18.3554 10.8694 18.5676 9.81408 18.5676C 8.54775 18.5676 7.54524 18.2493 6.70101 17.5597C 5.90956 16.87 5.32915 15.8621 4.95981 14.4828C 4.59046 13.1565 4.3794 11.618 4.3794 9.97347C 4.3794 8.32891 4.64322 6.79045 5.17086 5.41114C 5.59297 4.35013 6.17337 3.50133 7.07036 2.81167C 7.91458 2.17507 8.86433 1.80371 9.91961 1.80371C 11.1332 1.80371 12.2412 2.22812 13.2437 3.12997C 14.1935 4.03183 14.8794 5.30504 15.2488 6.9496L 15.7236 6.9496L 15.7236 0.583554L 15.2488 0.583554C 15.196 1.06101 15.0905 1.37931 14.8794 1.59151C 14.6684 1.80371 14.4573 1.90981 14.1935 1.90981C 13.9824 1.90981 13.5076 1.75066 12.7689 1.43236C 11.5025 0.848806 10.2362 0.583554 9.07539 0.583554C 7.49247 0.583554 6.01508 1.00796 4.64322 1.85676C 3.16583 2.86472 2.05779 4.08488 1.21357 5.67639C 0.369347 7.2679 0 8.91247 0 10.6631C 0 12.3077 0.369347 13.8992 1.10804 15.3846C 1.84674 16.817 2.90201 17.931 4.27388 18.7268ZM 16.3568 19.4695L 21.8442 19.4695L 21.8442 18.992C 21 18.939 20.4196 18.8329 20.2086 18.6737C 19.8392 18.4085 19.6282 18.0371 19.6282 17.5597C 19.6282 17.1883 19.7337 16.6578 19.9447 16.0743L 20.6307 14.2706L 26.4347 14.2706L 27.3317 16.5517C 27.5427 17.1353 27.701 17.5066 27.701 17.5597C 27.7538 17.7188 27.7538 17.878 27.7538 18.0371C 27.7538 18.3024 27.6483 18.5146 27.49 18.6737C 27.2262 18.8859 26.8041 18.992 26.1181 18.992L 25.8015 18.992L 25.8015 19.4695L 33.7689 19.4695L 33.7689 18.992C 33.2412 18.939 32.8719 18.7798 32.6081 18.5146C 32.2387 18.1432 31.7639 17.2414 31.2362 15.809L 25.3794 0.742706L 25.1684 0.742706L 19.2588 15.3846C 18.6784 16.7639 18.2035 17.7188 17.8342 18.1432C 17.4648 18.5676 16.99 18.8859 16.3568 18.939L 16.3568 19.4695ZM 23.691 6.9496L 26.1181 13.2626L 21.1056 13.2626L 23.691 6.9496ZM 37.093 19.0981C 37.3041 18.939 37.5679 18.8329 37.7789 18.8329C 38.0428 18.8329 38.3593 18.939 38.7287 19.0981C 39.4146 19.4164 39.995 19.6286 40.4699 19.7878C 40.9448 19.8939 41.4197 19.9469 41.9473 19.9469C 43.583 19.9469 44.9548 19.4164 46.0629 18.3024C 47.1182 17.1883 47.6986 15.8621 47.6986 14.3236C 47.6986 13.1034 47.382 12.0424 46.696 11.0875C 46.0101 10.1326 44.7438 9.17772 42.7915 8.11671C 41.4197 7.37401 40.5227 6.8435 40.1533 6.5252C 39.6257 6.1008 39.2563 5.67639 39.0453 5.25199C 38.887 4.93369 38.7815 4.56233 38.7815 4.19098C 38.7815 3.55438 39.0453 2.97082 39.5202 2.49337C 39.995 2.01591 40.681 1.75066 41.4724 1.75066C 42.5277 1.75066 43.5302 2.22812 44.48 3.12997C 45.3769 4.08488 45.9573 5.30504 46.2212 6.8435L 46.696 6.8435L 46.485 0.742706L 46.1156 0.742706C 46.0101 1.27321 45.9046 1.64456 45.7991 1.80371C 45.6935 1.96286 45.5352 2.01592 45.3242 2.01592C 45.1131 2.01592 44.7438 1.85676 44.1634 1.59151C 43.6357 1.27321 43.1609 1.11406 42.7915 1.00796C 42.2639 0.848806 41.789 0.795756 41.2086 0.795756C 39.7312 0.795756 38.5176 1.32626 37.5679 2.33422C 36.6181 3.34218 36.1433 4.61538 36.1433 6.04775C 36.1433 6.89655 36.3016 7.69231 36.6709 8.38196C 37.0402 9.07162 37.5151 9.76127 38.2011 10.2918C 38.8342 10.8753 39.9423 11.565 41.4197 12.4138C 42.4749 12.9973 43.2136 13.4748 43.6357 13.8462C 44.0578 14.2175 44.3744 14.5889 44.5855 15.0133C 44.7965 15.4377 44.9021 15.8621 44.9021 16.2865C 44.9021 17.0292 44.6382 17.6658 44.1106 18.1963C 43.583 18.7268 42.8443 19.0451 41.9473 19.0451C 40.7865 19.0451 39.6784 18.5146 38.6759 17.5066C 37.6734 16.4987 36.9875 15.0133 36.6181 13.0504L 36.1433 13.0504L 36.1433 20L 36.6181 20C 36.6709 19.5225 36.882 19.2573 37.093 19.0981ZM 63.9498 18.5146C 63.5805 18.1432 63.1056 17.2414 62.5252 15.809L 56.6157 0.742706L 56.4046 0.742706L 50.495 15.3846C 49.9146 16.7639 49.4398 17.7188 49.0704 18.1432C 48.7011 18.5676 48.2262 18.8859 47.593 18.939L 47.593 19.4164L 53.0805 19.4164L 53.0805 18.939C 52.2362 18.8859 51.6558 18.7798 51.4448 18.6207C 51.0754 18.3554 50.8644 17.9841 50.8644 17.5066C 50.8644 17.1353 50.9699 16.6048 51.181 16.0212L 51.8669 14.2175L 57.6709 14.2175L 58.5679 16.4987C 58.779 17.0822 58.9373 17.4536 58.9373 17.5066C 58.99 17.6658 58.99 17.8249 58.99 17.9841C 58.99 18.2493 58.8845 18.4615 58.7262 18.6207C 58.4624 18.8329 58.0403 18.939 57.3543 18.939L 57.0378 18.939L 57.0378 19.4164L 65.0051 19.4164L 65.0051 18.939C 64.6358 18.939 64.2136 18.7798 63.9498 18.5146ZM 52.3945 13.2626L 54.9272 6.9496L 57.4071 13.2626L 52.3945 13.2626ZM 82.681 1.53846C 81.4674 0.901857 79.8318 0.636605 77.774 0.636605L 70.176 0.636605L 70.176 1.16711L 70.7564 1.16711C 71.2312 1.16711 71.6006 1.27321 71.8644 1.43236C 72.1282 1.59151 72.3393 1.80371 72.4448 2.06897C 72.5503 2.33422 72.6031 2.91777 72.6031 3.87268L 72.6031 16.2865C 72.6031 17.2414 72.5503 17.8249 72.4976 18.0371C 72.3921 18.3554 72.181 18.5676 71.9172 18.7268C 71.6534 18.8859 71.284 18.992 70.8091 18.992L 70.176 18.992L 70.176 19.5225L 77.774 19.5225C 78.882 19.5225 79.6735 19.4695 80.2011 19.3634C 81.3619 19.0981 82.3117 18.7798 83.1031 18.3554C 83.8946 17.931 84.5805 17.3475 85.2137 16.6048C 85.8468 15.8621 86.3217 14.9602 86.6911 13.8462C 87.0604 12.7321 87.2715 11.5119 87.2715 10.1857C 87.2715 8.27586 86.9021 6.5252 86.1107 5.03979C 85.3192 3.44828 84.1584 2.33422 82.681 1.53846ZM 81.2564 16.9231C 80.5177 17.9841 79.4624 18.5146 78.0378 18.5146C 77.6157 18.5146 77.2991 18.4615 77.0353 18.3024C 76.877 18.1963 76.7715 18.0902 76.7187 17.878C 76.6659 17.7188 76.6132 17.2414 76.6132 16.4456L 76.6132 1.69761C 77.985 1.69761 78.9875 1.80371 79.6207 2.12202C 80.4649 2.54642 81.1509 3.28912 81.7313 4.45623C 82.4172 5.88859 82.7338 7.85146 82.7338 10.2918C 82.7338 13.2626 82.2589 15.4907 81.2564 16.9231ZM 85.8468 0L 90.0152 4.82759L 91.0705 4.82759L 89.5931 0L 85.8468 0ZM 107.322 3.02387C 105.633 1.16711 103.417 0.265252 100.726 0.371353C 98.1936 0.265252 96.1358 1.16711 94.3946 3.02387C 92.6534 4.88064 91.8092 7.21485 91.8092 10.0265C 91.8092 12.5199 92.4423 14.695 93.8142 16.4987C 95.5026 18.7798 97.8242 19.9469 100.885 19.9469C 103.945 19.9469 106.319 18.7268 107.955 16.3395C 109.221 14.5358 109.854 12.4138 109.854 10.0265C 109.854 7.21485 109.01 4.88064 107.322 3.02387ZM 104.736 15.3846C 104.314 16.7109 103.734 17.6127 102.995 18.2493C 102.415 18.7268 101.676 18.939 100.832 18.939C 99.5655 18.939 98.5629 18.4085 97.877 17.2944C 96.8745 15.756 96.3469 13.3687 96.3469 10.1326C 96.3469 7.42706 96.6634 5.35809 97.3494 3.87268C 98.1408 2.12202 99.3544 1.22016 100.885 1.22016C 101.729 1.22016 102.467 1.48541 103.101 1.96286C 103.734 2.49337 104.261 3.34218 104.684 4.56233C 105.106 5.78249 105.317 7.69231 105.317 10.1857C 105.369 12.3607 105.158 14.0584 104.736 15.3846ZM 126.264 16.9761L 122.148 10.6101C 123.204 10.3448 123.995 9.86737 124.576 9.33687C 125.473 8.43501 125.947 7.2679 125.947 5.88859C 125.947 4.72149 125.631 3.76658 125.05 2.91777C 124.47 2.06897 123.679 1.48541 122.729 1.16711C 121.779 0.848806 120.249 0.689655 118.244 0.689655L 110.329 0.689655L 110.329 1.22016C 111.121 1.22016 111.648 1.32626 111.912 1.43236C 112.176 1.59151 112.387 1.80371 112.493 2.06897C 112.598 2.33422 112.651 2.97082 112.651 3.97878L 112.651 16.2334C 112.651 17.2414 112.598 17.878 112.493 18.1432C 112.387 18.4085 112.176 18.6207 111.912 18.7798C 111.648 18.939 111.121 19.0451 110.329 19.0451L 110.329 19.5756L 119.035 19.5756L 119.035 19.0451C 118.244 19.0451 117.716 18.992 117.452 18.8329C 117.189 18.6737 116.978 18.4615 116.872 18.1963C 116.766 17.931 116.714 17.2944 116.714 16.2865L 116.714 10.9814L 117.822 10.9814L 123.309 19.5756L 128.638 19.5756L 128.638 19.0451C 128.163 18.992 127.794 18.8329 127.425 18.5676C 127.161 18.3554 126.792 17.8249 126.264 16.9761ZM 121.304 8.27586C 120.988 8.91247 120.513 9.33687 119.932 9.54907C 119.352 9.76127 118.508 9.92042 117.347 9.92042L 116.608 9.92042L 116.608 1.64456L 117.927 1.64456C 119.246 1.64456 120.249 1.96286 120.829 2.65252C 121.41 3.34218 121.726 4.40318 121.726 5.83554C 121.832 6.89655 121.621 7.69231 121.304 8.27586ZM 143.518 3.02387C 141.829 1.16711 139.613 0.265252 136.922 0.371353C 134.442 0.265252 132.332 1.16711 130.591 3.02387C 128.849 4.88064 128.005 7.21485 128.005 10.0265C 128.005 12.5199 128.638 14.695 129.957 16.4987C 131.646 18.7798 133.968 19.9469 137.028 19.9469C 140.088 19.9469 142.41 18.7268 144.098 16.3395C 145.365 14.5358 145.998 12.4138 145.998 10.0265C 146.05 7.21485 145.206 4.88064 143.518 3.02387ZM 140.932 15.3846C 140.51 16.7109 139.93 17.6127 139.191 18.2493C 138.611 18.7268 137.872 18.939 137.028 18.939C 135.761 18.939 134.759 18.4085 134.073 17.2944C 133.071 15.756 132.543 13.3687 132.543 10.1326C 132.543 7.42706 132.859 5.35809 133.545 3.87268C 134.337 2.12202 135.55 1.22016 137.081 1.22016C 137.925 1.22016 138.663 1.48541 139.297 1.96286C 139.93 2.49337 140.457 3.34218 140.88 4.56233C 141.302 5.78249 141.513 7.69231 141.513 10.1857C 141.566 12.3607 141.354 14.0584 140.932 15.3846Z"/>
</defs>
</svg>
