<svg width="24" height="24" viewBox="0 0 24 24" version="1.1" xmlns="http://www.w3.org/2000/svg" xmlns:xlink="http://www.w3.org/1999/xlink">
<title>Combined Shape</title>
<desc>Created using Figma</desc>
<g id="Canvas" transform="translate(-754 -1363)">
<g id="Combined Shape">
<use xlink:href="#path0_fill" transform="translate(754 1363)" fill="#999999"/>
</g>
</g>
<defs>
<path id="path0_fill" fill-rule="evenodd" d="M 12 0C 5.37256 0 0 5.37256 0 12C 0 18.6274 5.37256 24 12 24C 18.6274 24 24 18.6274 24 12C 24 5.37256 18.6274 0 12 0ZM 11.6658 10.1689L 11.6406 9.75366C 11.5651 8.67749 12.2281 7.69446 13.2774 7.31323C 13.6635 7.17761 14.3182 7.16064 14.7463 7.2793C 14.9142 7.33008 15.2332 7.49963 15.4598 7.6521L 15.871 7.93176L 16.3243 7.78772C 16.5761 7.71143 16.9119 7.58435 17.063 7.49963C 17.2057 7.42334 17.3315 7.38098 17.3315 7.40637C 17.3315 7.55042 17.021 8.04199 16.7608 8.31311C 16.4083 8.69446 16.509 8.72839 17.2225 8.47412C 17.6505 8.33008 17.6589 8.33008 17.575 8.49109C 17.5246 8.57581 17.2644 8.87244 16.9874 9.14355C 16.5174 9.60962 16.4922 9.66052 16.4922 10.0503C 16.4922 10.652 16.2068 11.9061 15.9214 12.5925C 15.3926 13.8805 14.2595 15.2109 13.1263 15.8804C 11.5315 16.821 9.40784 17.0583 7.62 16.5074C 7.02405 16.321 6 15.8466 6 15.7618C 6 15.7363 6.31055 15.7025 6.68829 15.694C 7.47729 15.677 8.2663 15.4567 8.93781 15.0669L 9.39105 14.7958L 8.87067 14.6178C 8.13202 14.3635 7.46893 13.7788 7.30103 13.228C 7.25067 13.05 7.26746 13.0416 7.73749 13.0416L 8.22437 13.0332L 7.81305 12.8383C 7.32623 12.5925 6.88135 12.1772 6.66309 11.7535C 6.5036 11.4485 6.30219 10.6774 6.3609 10.618C 6.37775 10.5927 6.55402 10.6434 6.75543 10.7113C 7.33459 10.9231 7.41016 10.8723 7.0744 10.5164C 6.44489 9.87231 6.25183 8.91479 6.55402 8.00806L 6.69666 7.60132L 7.25067 8.1521C 8.38385 9.26221 9.71844 9.92322 11.2461 10.118L 11.6658 10.1689Z"/>
</defs>
</svg>
