<svg width="24" height="24" viewBox="0 0 24 24" version="1.1" xmlns="http://www.w3.org/2000/svg" xmlns:xlink="http://www.w3.org/1999/xlink">
<title>Combined Shape</title>
<desc>Created using Figma</desc>
<g id="Canvas" transform="translate(-666 -1363)">
<g id="Combined Shape">
<use xlink:href="#path0_fill" transform="translate(666 1363)" fill="#999999"/>
</g>
</g>
<defs>
<path id="path0_fill" fill-rule="evenodd" d="M 12 0C 5.37256 0 0 5.37256 0 12C 0 18.6274 5.37256 24 12 24C 18.6274 24 24 18.6274 24 12C 24 5.37256 18.6274 0 12 0ZM 12.9771 15.3881C 12.8587 15.5128 12.6277 15.5381 12.6277 15.5381L 11.8627 15.5381C 11.8627 15.5381 10.1749 15.6376 8.68799 14.1185C 7.06653 12.4612 5.63477 9.17285 5.63477 9.17285C 5.63477 9.17285 5.55212 8.95715 5.6416 8.85327C 5.74243 8.73584 6.01727 8.72852 6.01727 8.72852L 7.84595 8.7168C 7.84595 8.7168 8.01813 8.74451 8.14142 8.83362C 8.24347 8.90735 8.30048 9.04431 8.30048 9.04431C 8.30048 9.04431 8.59595 9.77808 8.98724 10.4418C 9.75165 11.7378 10.1072 12.0211 10.3664 11.8822C 10.7446 11.6801 10.6312 10.0503 10.6312 10.0503C 10.6312 10.0503 10.6381 9.45911 10.4409 9.19556C 10.2881 8.99146 10.0002 8.93188 9.87311 8.91528C 9.76978 8.90173 9.93884 8.66699 10.158 8.56201C 10.4872 8.40405 11.0682 8.39478 11.755 8.40161C 12.2903 8.4071 12.4443 8.4397 12.6534 8.48938C 13.1387 8.60437 13.1235 8.97278 13.0908 9.76782C 13.0811 10.0056 13.0697 10.2816 13.0697 10.6003C 13.0697 10.672 13.0676 10.7484 13.0654 10.8269C 13.054 11.2343 13.041 11.7006 13.3145 11.8743C 13.4547 11.9628 13.7972 11.8872 14.6542 10.459C 15.0605 9.78174 15.3648 8.98596 15.3648 8.98596C 15.3648 8.98596 15.4318 8.84399 15.5351 8.7832C 15.6409 8.72107 15.7836 8.74011 15.7836 8.74011L 17.7081 8.72852C 17.7081 8.72852 18.2866 8.66028 18.3798 8.91711C 18.4781 9.18567 18.1639 9.81372 17.3776 10.8424C 16.6317 11.8185 16.2687 12.178 16.302 12.4957C 16.3264 12.728 16.5623 12.9381 17.0151 13.3503C 17.96 14.2114 18.2134 14.6647 18.2744 14.7737L 18.2859 14.7938C 18.7098 15.484 17.8158 15.5381 17.8158 15.5381L 16.106 15.5614C 16.106 15.5614 15.7392 15.6327 15.2559 15.307C 15.0027 15.1366 14.7552 14.8582 14.5196 14.5929C 14.1598 14.188 13.8273 13.8138 13.5436 13.9022C 13.0672 14.0509 13.0816 15.0581 13.0816 15.0581C 13.0816 15.0581 13.0853 15.2738 12.9771 15.3881Z"/>
</defs>
</svg>
